<?xml version="1.0" encoding="UTF-8" standalone="no"?>
<!-- Created with Inkscape (http://www.inkscape.org/) -->

<svg
   xmlns:dc="http://purl.org/dc/elements/1.1/"
   xmlns:cc="http://creativecommons.org/ns#"
   xmlns:rdf="http://www.w3.org/1999/02/22-rdf-syntax-ns#"
   xmlns:svg="http://www.w3.org/2000/svg"
   xmlns="http://www.w3.org/2000/svg"
   xmlns:sodipodi="http://sodipodi.sourceforge.net/DTD/sodipodi-0.dtd"
   xmlns:inkscape="http://www.inkscape.org/namespaces/inkscape"
   width="210mm"
   height="297mm"
   viewBox="0 0 210 297"
   version="1.1"
   id="svg8"
   inkscape:version="0.92.4 (5da689c313, 2019-01-14)"
   sodipodi:docname="color_cluters1.svg">


<text x="0" y="0">r:'231' g:'226' b:'220' </text><rect x="0.0" y="0.0" width="164.0" height="274.0" style="fill:#ff0000;stroke:black;stroke-width:1;opacity:1"/>
<text x="0" y="274">r:'231' g:'226' b:'220' </text><rect x="0.0" y="274.0" width="54.0" height="165.0" style="fill:#00ff00;stroke:black;stroke-width:1;opacity:1"/>
<text x="164" y="0">r:'231' g:'226' b:'220' </text><rect x="164.0" y="0.0" width="54.0" height="55.0" style="fill:#0000ff;stroke:black;stroke-width:1;opacity:1"/>
<text x="218" y="0">r:'231' g:'226' b:'220' </text><rect x="218.0" y="0.0" width="54.0" height="55.0" style="fill:#f4d45f;stroke:black;stroke-width:1;opacity:1"/>
<text x="218" y="55">r:'169' g:'178' b:'185' </text><rect x="218.0" y="55.0" width="166.0" height="220.0" style="fill:none;stroke:black;stroke-width:1;opacity:1"/>
<text x="218" y="275">r:'88' g:'107' b:'124' </text><rect x="218.0" y="275.0" width="56.0" height="164.0" style="fill:none;stroke:black;stroke-width:1;opacity:1"/>
<text x="272" y="0">r:'231' g:'226' b:'220' </text><rect x="272.0" y="0.0" width="54.0" height="55.0" style="fill:none;stroke:black;stroke-width:1;opacity:1"/>
<text x="272" y="55">r:'169' g:'178' b:'185' </text><rect x="272.0" y="55.0" width="112.0" height="220.0" style="fill:none;stroke:black;stroke-width:1;opacity:1"/>
<text x="272" y="275">r:'85' g:'103' b:'125' </text><rect x="272.0" y="275.0" width="2.0" height="164.0" style="fill:none;stroke:black;stroke-width:1;opacity:1"/>
<text x="326" y="0">r:'231' g:'226' b:'220' </text><rect x="326.0" y="0.0" width="54.0" height="55.0" style="fill:none;stroke:black;stroke-width:1;opacity:1"/>
<text x="326" y="55">r:'169' g:'178' b:'185' </text><rect x="326.0" y="55.0" width="58.0" height="384.0" style="fill:none;stroke:black;stroke-width:1;opacity:1"/>
<text x="380" y="0">r:'231' g:'226' b:'220' </text><rect x="380.0" y="0.0" width="224.0" height="54.0" style="fill:none;stroke:black;stroke-width:1;opacity:1"/>

</svg>